<svg width="113" height="73" viewBox="0 0 113 73" fill="none" xmlns="http://www.w3.org/2000/svg">
<rect x="12.0001" width="111.023" height="28.1798" rx="2" transform="rotate(25 12.0001 0)" fill="url(#paint0_linear_1129_255)"/>
<path d="M18.3371 24.8786L19.2563 16.0976L19.2005 16.0716C19.1339 16.2468 19.0405 16.4848 18.9203 16.7858C18.8001 17.0867 18.6682 17.4074 18.5245 17.7477C18.3809 18.088 18.2379 18.411 18.0953 18.7166L15.7784 23.6854L14.4278 23.0556L18.6515 13.9978L20.7393 14.9714L19.877 23.3716L19.9142 23.3889L25.8816 17.3693L27.9632 18.34L23.7395 27.3978L22.3208 26.7362L24.6724 21.6931C24.8015 21.4163 24.9452 21.1188 25.1037 20.8005C25.2663 20.4841 25.4212 20.1843 25.5685 19.9009C25.7198 19.6195 25.84 19.394 25.9292 19.2244L25.8796 19.2013L19.6505 25.491L18.3371 24.8786ZM33.6539 27.8272C33.3881 28.3972 33.0779 28.8685 32.7231 29.2411C32.3683 29.6137 31.9772 29.8864 31.5497 30.0591C31.1241 30.2278 30.6734 30.2992 30.1977 30.2735C29.7238 30.2436 29.235 30.1112 28.7311 29.8762C28.2602 29.6566 27.8652 29.3769 27.546 29.037C27.2287 28.6929 26.9958 28.3027 26.8473 27.8664C26.7048 27.4279 26.6582 26.951 26.7073 26.4359C26.7564 25.9208 26.9139 25.3782 27.1797 24.8082C27.5321 24.0524 27.9608 23.4729 28.4656 23.0696C28.9764 22.6642 29.5401 22.4368 30.1565 22.3873C30.7729 22.3379 31.4178 22.4701 32.091 22.784C32.7229 23.0787 33.216 23.4771 33.5702 23.9792C33.9244 24.4812 34.1145 25.0602 34.1406 25.716C34.1667 26.3718 34.0045 27.0755 33.6539 27.8272ZM28.679 25.5074C28.4459 26.0071 28.3065 26.4625 28.2606 26.8736C28.2189 27.2866 28.2818 27.6478 28.4493 27.9572C28.6187 28.2625 28.9058 28.5095 29.3105 28.6982C29.7153 28.887 30.0891 28.9481 30.4318 28.8817C30.7765 28.8111 31.0915 28.6261 31.3769 28.3268C31.6624 28.0274 31.9216 27.6279 32.1546 27.1281C32.3877 26.6283 32.5252 26.177 32.5672 25.7742C32.6111 25.3673 32.5474 25.0133 32.3761 24.7121C32.2067 24.4069 31.9175 24.1589 31.5086 23.9682C30.9056 23.687 30.3714 23.6843 29.9059 23.96C29.4404 24.2357 29.0314 24.7515 28.679 25.5074ZM39.2428 32.2436C39.0328 32.6938 38.7462 33.0227 38.3828 33.2304C38.0195 33.4381 37.5896 33.5243 37.0932 33.4889C36.6029 33.4513 36.0541 33.291 35.4469 33.0079C34.9678 32.7845 34.5712 32.5567 34.257 32.3247C33.945 32.0988 33.6689 31.8444 33.4287 31.5614L34.0152 30.3037C34.2702 30.6087 34.5741 30.9113 34.9269 31.2116C35.2838 31.5138 35.644 31.7496 36.0074 31.9191C36.4866 32.1425 36.8661 32.229 37.1461 32.1785C37.428 32.1239 37.6277 31.9707 37.7452 31.7187C37.8145 31.57 37.8328 31.4176 37.8 31.2615C37.7732 31.1032 37.6731 30.9082 37.4996 30.6764C37.3321 30.4425 37.0688 30.1336 36.7097 29.75C36.3569 29.3743 36.0723 29.0303 35.8558 28.7182C35.6393 28.406 35.5114 28.0925 35.4722 27.7775C35.435 27.4585 35.5059 27.1069 35.685 26.7227C35.9682 26.1156 36.4225 25.7668 37.0479 25.6763C37.6795 25.5836 38.3918 25.7221 39.1848 26.0919C39.6061 26.2884 39.9824 26.5166 40.3137 26.7767C40.651 27.0346 40.9618 27.3279 41.246 27.6565L40.2762 28.5393C40.03 28.2586 39.7701 28.0016 39.4967 27.7685C39.2293 27.5332 38.9345 27.3404 38.6123 27.1902C38.2365 27.0149 37.9224 26.9389 37.6703 26.9621C37.4222 26.9872 37.2481 27.1072 37.148 27.322C37.0728 27.483 37.0568 27.6415 37.0998 27.7973C37.1428 27.9531 37.2539 28.1407 37.4332 28.3601C37.6166 28.5814 37.8784 28.8719 38.2185 29.2316C38.5543 29.5793 38.8304 29.9092 39.0468 30.2213C39.2694 30.5312 39.4034 30.8477 39.4489 31.1706C39.4945 31.4935 39.4257 31.8512 39.2428 32.2436ZM42.9472 35.0722C43.1372 35.1608 43.3328 35.2319 43.5341 35.2855C43.7373 35.335 43.9268 35.3706 44.1028 35.3923L43.5885 36.4951C43.3947 36.4902 43.1582 36.4528 42.879 36.383C42.5998 36.3131 42.3218 36.2137 42.0451 36.0846C41.6569 35.9036 41.3377 35.6768 41.0876 35.4043C40.8395 35.1277 40.6987 34.788 40.6653 34.3853C40.6318 33.9825 40.7461 33.5002 41.008 32.9385L42.727 29.2522L41.7915 28.816L42.0948 28.1654L43.3383 28.1192L44.5 26.8734L45.4169 27.3009L44.7062 28.825L46.6702 29.7408L46.1531 30.8498L44.1891 29.934L42.4788 33.6017C42.317 33.9487 42.2834 34.2473 42.3779 34.4975C42.4724 34.7477 42.6622 34.9393 42.9472 35.0722ZM55.2233 31.0516C56.3922 31.5966 57.1334 32.2339 57.4469 32.9634C57.7604 33.6929 57.7159 34.4892 57.3134 35.3525C57.1304 35.7449 56.8941 36.0898 56.6046 36.3872C56.3211 36.6824 55.9774 36.9018 55.5736 37.0454C55.1717 37.1848 54.707 37.2271 54.1794 37.1721C53.656 37.1192 53.0639 36.9386 52.4031 36.6304L51.4366 36.1798L49.8534 39.5749L48.3665 38.8815L52.5902 29.8237L55.2233 31.0516ZM54.5492 32.2382L53.5022 31.75L52.0144 34.9407L52.826 35.3191C53.2927 35.5368 53.7143 35.668 54.0906 35.7127C54.4689 35.7534 54.7986 35.6934 55.0797 35.5328C55.3607 35.3722 55.5927 35.0957 55.7757 34.7033C56.0203 34.1788 56.0433 33.7143 55.8447 33.3099C55.6502 32.9075 55.2184 32.5502 54.5492 32.2382ZM63.7019 41.8388C63.4361 42.4088 63.1259 42.8801 62.7711 43.2527C62.4163 43.6253 62.0252 43.898 61.5977 44.0708C61.1721 44.2394 60.7214 44.3108 60.2456 44.2851C59.7718 44.2552 59.283 44.1228 58.7791 43.8878C58.3082 43.6683 57.9132 43.3885 57.594 43.0486C57.2767 42.7045 57.0438 42.3143 56.8953 41.878C56.7528 41.4395 56.7062 40.9626 56.7553 40.4475C56.8044 39.9324 56.9619 39.3898 57.2277 38.8198C57.5801 38.064 58.0088 37.4845 58.5136 37.0813C59.0244 36.6758 59.5881 36.4484 60.2045 36.3989C60.8209 36.3495 61.4657 36.4817 62.139 36.7956C62.7709 37.0903 63.264 37.4887 63.6182 37.9908C63.9724 38.4928 64.1625 39.0718 64.1886 39.7276C64.2147 40.3834 64.0525 41.0871 63.7019 41.8388ZM58.727 39.519C58.4939 40.0187 58.3545 40.4742 58.3086 40.8852C58.2669 41.2982 58.3298 41.6594 58.4973 41.9688C58.6667 42.2741 58.9538 42.5211 59.3585 42.7098C59.7633 42.8986 60.1371 42.9597 60.4798 42.8933C60.8245 42.8227 61.1395 42.6377 61.4249 42.3384C61.7104 42.039 61.9696 41.6395 62.2026 41.1397C62.4357 40.6399 62.5732 40.1886 62.6152 39.7858C62.6591 39.3789 62.5954 39.0249 62.4241 38.7237C62.2547 38.4185 61.9655 38.1705 61.5566 37.9798C60.9536 37.6986 60.4194 37.6959 59.9539 37.9716C59.4884 38.2473 59.0794 38.7631 58.727 39.519ZM70.5462 40.716C71.3599 41.0954 71.8738 41.6971 72.088 42.5211C72.3063 43.347 72.1419 44.3464 71.595 45.5194C71.2329 46.2959 70.8119 46.8966 70.3322 47.3216C69.8585 47.7443 69.3516 47.9957 68.8114 48.0757C68.2773 48.1535 67.7377 48.0653 67.1925 47.8111C66.8456 47.6493 66.5652 47.4633 66.3515 47.253C66.1378 47.0427 65.9738 46.8229 65.8595 46.5936C65.7471 46.3602 65.6694 46.1278 65.6263 45.8966L65.5396 45.8561C65.4832 46.031 65.4161 46.2234 65.3383 46.4335C65.2665 46.6414 65.192 46.828 65.115 46.9932L63.8121 49.7873L62.3499 49.1055L66.9665 39.2052L68.1561 39.7599L67.9185 40.8031L67.9867 40.8349C68.2052 40.7005 68.4439 40.593 68.7027 40.5125C68.9656 40.434 69.2493 40.4079 69.5538 40.4342C69.8643 40.4584 70.1952 40.5523 70.5462 40.716ZM69.6012 41.7235C69.2006 41.5367 68.8409 41.467 68.5221 41.5145C68.2093 41.5597 67.923 41.7154 67.6632 41.9814C67.4075 42.2493 67.1638 42.621 66.9322 43.0962L66.8368 43.3007C66.5999 43.8087 66.4503 44.2644 66.3879 44.6677C66.3316 45.0689 66.382 45.4192 66.539 45.7187C66.702 46.016 66.9942 46.2629 67.4155 46.4593C67.7707 46.625 68.1092 46.6647 68.4311 46.5784C68.757 46.494 69.0616 46.2992 69.3448 45.9938C69.628 45.6883 69.8832 45.292 70.1105 44.8046C70.4553 44.0653 70.5908 43.4295 70.5171 42.8973C70.4476 42.3671 70.1423 41.9758 69.6012 41.7235ZM80.8506 45.6794L77.6525 52.5378L76.5063 52.0033L76.7385 50.9877L76.658 50.9502C76.4036 51.1182 76.1283 51.2287 75.8321 51.2816C75.5378 51.3304 75.237 51.3285 74.9298 51.2757C74.6206 51.2271 74.3152 51.1324 74.0137 50.9918C73.4974 50.7511 73.0959 50.4583 72.8092 50.1134C72.5286 49.7663 72.3769 49.3637 72.3542 48.9056C72.3315 48.4475 72.4559 47.9272 72.7275 47.3448L74.8162 42.8655L76.2783 43.5473L74.3167 47.754C74.0682 48.2868 73.9898 48.7355 74.0813 49.1C74.1769 49.4664 74.454 49.7565 74.9124 49.9703C75.3544 50.1764 75.7478 50.2492 76.0928 50.1888C76.4377 50.1284 76.7467 49.9457 77.0198 49.6405C77.2969 49.3373 77.5559 48.9276 77.7966 48.4113L79.3884 44.9976L80.8506 45.6794ZM81.2025 54.1932L79.7403 53.5114L84.2356 43.8712L85.6977 44.553L81.2025 54.1932ZM89.2318 49.4292C90.0991 49.8337 90.6642 50.331 90.927 50.9212C91.194 51.5133 91.1378 52.2162 90.7583 53.0299L88.606 57.6455L87.5714 57.163L87.7462 56.0604L87.6966 56.0372C87.3869 56.1945 87.0913 56.3056 86.8096 56.3704C86.528 56.4351 86.2326 56.4432 85.9234 56.3946C85.6164 56.352 85.2688 56.2402 84.8805 56.0591C84.4716 55.8685 84.1408 55.6237 83.888 55.3247C83.6371 55.0217 83.4909 54.672 83.4495 54.2755C83.4081 53.8791 83.4981 53.4434 83.7196 52.9684C84.0489 52.2621 84.5587 51.8536 85.2489 51.743C85.9432 51.6344 86.8318 51.8099 87.9148 52.2696L89.1245 52.7809L89.2921 52.4216C89.5136 51.9466 89.56 51.5559 89.4313 51.2495C89.3068 50.9451 89.0442 50.6994 88.6436 50.5126C88.3008 50.3528 87.9452 50.2473 87.5768 50.1962C87.2084 50.1451 86.8377 50.1205 86.4646 50.1226L86.4733 48.8746C86.8907 48.853 87.3381 48.8856 87.8155 48.9725C88.2971 49.0612 88.7692 49.2135 89.2318 49.4292ZM88.6908 53.695L87.7904 53.3128C87.0519 52.9986 86.484 52.8847 86.0868 52.971C85.6895 53.0573 85.4004 53.2945 85.2193 53.6828C85.0614 54.0215 85.047 54.3165 85.1762 54.5678C85.3073 54.815 85.5381 55.0156 85.8685 55.1697C86.3724 55.4047 86.856 55.4567 87.3194 55.3258C87.7887 55.1927 88.1534 54.8473 88.4134 54.2897L88.6908 53.695ZM97.3788 53.2282C97.4944 53.2822 97.6175 53.3471 97.748 53.423C97.8786 53.499 97.9886 53.5704 98.0781 53.6373L97.3062 54.9367C97.231 54.8715 97.1323 54.8028 97.01 54.7307C96.8919 54.6606 96.7833 54.6024 96.6841 54.5561C96.4239 54.4348 96.1559 54.3626 95.88 54.3396C95.6061 54.3124 95.3378 54.3432 95.0752 54.4319C94.8145 54.5165 94.5728 54.6628 94.3501 54.8707C94.1274 55.0786 93.9371 55.3519 93.7792 55.6906L92.1065 59.2778L90.6443 58.596L93.8425 51.7376L94.9824 52.2692L94.6173 53.5697L94.6855 53.6015C94.9354 53.4214 95.2088 53.2773 95.5055 53.1693C95.8023 53.0613 96.1087 53.0081 96.4248 53.0096C96.7469 53.009 97.0649 53.0819 97.3788 53.2282Z" fill="black"/>
<defs>
<linearGradient id="paint0_linear_1129_255" x1="67.5118" y1="0" x2="67.5118" y2="28.1798" gradientUnits="userSpaceOnUse">
<stop stop-color="#FDDAFD"/>
<stop offset="1" stop-color="#E7D5FE"/>
</linearGradient>
</defs>
</svg>
